<?xml version="1.0" encoding="utf-8"?>
<!-- Generator: Adobe Illustrator 23.1.1, SVG Export Plug-In . SVG Version: 6.00 Build 0)  -->
<svg version="1.1" id="Layer_1" xmlns="http://www.w3.org/2000/svg" xmlns:xlink="http://www.w3.org/1999/xlink" x="0px" y="0px"
	 viewBox="0 0 264 280" style="enable-background:new 0 0 264 280;" xml:space="preserve">
<style type="text/css">
	.st0{fill-rule:evenodd;clip-rule:evenodd;fill:#D0C6AC;}
	.st1{filter:url(#Adobe_OpacityMaskFilter);}
	.st2{fill-rule:evenodd;clip-rule:evenodd;fill:#FFFFFF;}
	.st3{mask:url(#mask-6_1_);}
	.st4{fill-rule:evenodd;clip-rule:evenodd;fill:#EDB98A;}
	.st5{filter:url(#Adobe_OpacityMaskFilter_1_);}
	.st6{mask:url(#mask-6_2_);fill-rule:evenodd;clip-rule:evenodd;fill-opacity:0.1;}
	.st7{fill-rule:evenodd;clip-rule:evenodd;fill-opacity:0.7;}
	.st8{fill-rule:evenodd;clip-rule:evenodd;fill-opacity:0.16;}
	.st9{fill-rule:evenodd;clip-rule:evenodd;fill-opacity:0.6;}
	.st10{fill-opacity:0.6;}
	.st11{filter:url(#Adobe_OpacityMaskFilter_2_);}
	.st12{mask:url(#react-mask-29_1_);}
	.st13{fill-rule:evenodd;clip-rule:evenodd;fill:#4A312C;}
	.st14{fill-rule:evenodd;clip-rule:evenodd;fill:#6B6B6B;}
	.st15{fill:#E2E2E2;}
	.st16{opacity:0.1;fill-rule:evenodd;clip-rule:evenodd;}
	.st17{opacity:0.1;}
	.st18{fill-rule:evenodd;clip-rule:evenodd;}
</style>
<desc>Created with getavataaars.com</desc>
<g>
	<g transform="translate(-825.000000, -1100.000000)">
		<g transform="translate(825.000000, 1100.000000)">
			<g id="Mask">
			</g>
			<g>
				<g id="Avataaar">
					<g id="Body" transform="translate(32.000000, 36.000000)">
						<g>
							<path class="st0" d="M124,144.6V163h4l0,0c39.8,0,72,32.2,72,72v9H0v-9c0-39.8,32.2-72,72-72l0,0h4v-18.4
								c-17.2-8.2-29.6-24.9-31.7-44.7C38.5,99.1,34,94.1,34,88V74c0-5.9,4.3-10.9,10-11.8V56l0,0c0-30.9,25.1-56,56-56l0,0l0,0
								c30.9,0,56,25.1,56,56v6.2c5.7,1,10,5.9,10,11.8v14c0,6.1-4.5,11.1-10.3,11.9C153.6,119.7,141.2,136.4,124,144.6z"/>
						</g>
						<defs>
							<filter id="Adobe_OpacityMaskFilter" filterUnits="userSpaceOnUse" x="-32" y="0" width="264" height="244">
								<feColorMatrix  type="matrix" values="1 0 0 0 0  0 1 0 0 0  0 0 1 0 0  0 0 0 1 0"/>
							</filter>
						</defs>
						<mask maskUnits="userSpaceOnUse" x="-32" y="0" width="264" height="244" id="mask-6_1_">
							<g class="st1">
								<path id="path-5_1_" class="st2" d="M124,144.6V163h4l0,0c39.8,0,72,32.2,72,72v9H0v-9c0-39.8,32.2-72,72-72l0,0h4v-18.4
									c-17.2-8.2-29.6-24.9-31.7-44.7C38.5,99.1,34,94.1,34,88V74c0-5.9,4.3-10.9,10-11.8V56l0,0c0-30.9,25.1-56,56-56l0,0l0,0
									c30.9,0,56,25.1,56,56v6.2c5.7,1,10,5.9,10,11.8v14c0,6.1-4.5,11.1-10.3,11.9C153.6,119.7,141.2,136.4,124,144.6z"/>
							</g>
						</mask>
						<g class="st3">
							<g id="Color" transform="translate(-32.000000, 0.000000)">
								<rect class="st4" width="264" height="244"/>
							</g>
						</g>
						<defs>
							<filter id="Adobe_OpacityMaskFilter_1_" filterUnits="userSpaceOnUse" x="44" y="79" width="112" height="79">
								<feColorMatrix  type="matrix" values="1 0 0 0 0  0 1 0 0 0  0 0 1 0 0  0 0 0 1 0"/>
							</filter>
						</defs>
						<mask maskUnits="userSpaceOnUse" x="44" y="79" width="112" height="79" id="mask-6_2_">
							<g class="st5">
								<path id="path-5_2_" class="st2" d="M124,144.6V163h4l0,0c39.8,0,72,32.2,72,72v9H0v-9c0-39.8,32.2-72,72-72l0,0h4v-18.4
									c-17.2-8.2-29.6-24.9-31.7-44.7C38.5,99.1,34,94.1,34,88V74c0-5.9,4.3-10.9,10-11.8V56l0,0c0-30.9,25.1-56,56-56l0,0l0,0
									c30.9,0,56,25.1,56,56v6.2c5.7,1,10,5.9,10,11.8v14c0,6.1-4.5,11.1-10.3,11.9C153.6,119.7,141.2,136.4,124,144.6z"/>
							</g>
						</mask>
						<path id="Neck-Shadow" class="st6" d="M156,79v23c0,30.9-25.1,56-56,56s-56-25.1-56-56V79v15c0,30.9,25.1,56,56,56
							s56-25.1,56-56V79z"/>
					</g>
					<g transform="translate(0.000000, 170.000000)">
						<g id="Clothes">
							<path class="st2" d="M156,28.3c37-0.1,76,23.9,76,72.8v8.9H32v-8.9C30.9,58,64.5,28.2,106,28.2c0,0.4,0,1.7,0,2.1
								c0,11.9,26,17.5,26,17.5c4-0.3,24-6.7,24-18.5C156,29,156,28.6,156,28.3z"/>
						</g>
					</g>
					<g id="Face" transform="translate(76.000000, 82.000000)">
						<g transform="translate(2.000000, 52.000000)">
							<path id="Mouth" class="st7" d="M40,15c0,7.7,6.3,14,14,14l0,0c7.7,0,14-6.3,14-14"/>
						</g>
						<g transform="translate(28.000000, 40.000000)">
							<path id="Nose" class="st8" d="M16,8c0,4.4,5.4,8,12,8l0,0c6.6,0,12-3.6,12-8"/>
						</g>
						<g transform="translate(0.000000, 8.000000)">
							<circle id="Eye" class="st9" cx="30" cy="22" r="6"/>
							<circle class="st9" cx="82" cy="22" r="6"/>
						</g>
						<g>
							<g id="I-Browse" transform="translate(12.000000, 6.000000)">
								<path id="Eyebrow" class="st10" d="M3.6,11.2c3.9-5.5,14.6-8.6,23.9-6.3c1.1,0.3,2.2-0.4,2.4-1.5c0.3-1.1-0.4-2.2-1.5-2.4
									C17.7-1.7,5.3,1.9,0.4,8.8c-0.6,0.9-0.4,2.1,0.5,2.8S3,12.1,3.6,11.2z"/>
								<path class="st10" d="M84.4,11.2c-3.9-5.5-14.6-8.6-23.9-6.3c-1.1,0.3-2.2-0.4-2.4-1.5s0.4-2.2,1.5-2.4
									c10.7-2.6,23.2,0.9,28.1,7.9c0.6,0.9,0.4,2.1-0.5,2.8S85,12.1,84.4,11.2z"/>
							</g>
						</g>
					</g>
					<g id="Top">
						<defs>
							<filter id="Adobe_OpacityMaskFilter_2_" filterUnits="userSpaceOnUse" x="72" y="9" width="121" height="178">
								<feColorMatrix  type="matrix" values="1 0 0 0 0  0 1 0 0 0  0 0 1 0 0  0 0 0 1 0"/>
							</filter>
						</defs>
						<mask maskUnits="userSpaceOnUse" x="72" y="9" width="121" height="178" id="react-mask-29_1_">
							<g class="st11">
								<rect id="react-path-31_1_" class="st2" width="264" height="280"/>
							</g>
						</mask>
						<g class="st12">
							<g transform="translate(-1.000000, 0.000000)">
								<g transform="translate(49.000000, 72.000000)">
									<g id="Lite-Beard">
										<path class="st13" d="M101.4,98.2c-2.5,2.3-5.2,3.3-8.6,2.6c-0.6-0.1-3-4.5-8.9-4.5c-5.9,0-8.3,4.4-8.9,4.5
											c-3.4,0.7-6.1-0.3-8.6-2.6c-4.7-4.3-8.7-10.3-6.3-16.7c1.2-3.4,3.2-7.1,6.9-8.2c3.9-1.2,9.3,0,13.3-0.8
											c1.3-0.3,2.7-0.7,3.6-1.5c0.9,0.8,2.3,1.2,3.6,1.5c3.9,0.8,9.4-0.4,13.3,0.8c3.6,1.1,5.6,4.8,6.9,8.2
											C110.1,87.9,106.2,93.9,101.4,98.2 M140.1,26c-3.4,8.4-2.1,18.9-2.7,27.7c-0.5,7.2-2,17.9-8.4,22.5
											c-3.3,2.4-9.2,6.3-13.4,5.2c-2.9-0.8-3.2-9.2-7.1-12.3c-4.4-3.6-9.8-5.1-15.3-4.9c-2.4,0.1-7.2,0.1-9.1,1.9
											c-2-1.8-6.8-1.8-9.1-1.9c-5.5-0.2-10.9,1.3-15.3,4.9c-3.8,3.1-4.2,11.5-7.1,12.3c-4.3,1.1-10.2-2.9-13.4-5.2
											c-6.4-4.6-7.9-15.4-8.4-22.5C30,44.9,31.3,34.4,27.9,26c-1.7,0-0.6,16.1-0.6,16.1v20.4c0,15.3,9.6,38.2,30.8,46.9
											C63.3,111.5,75,115,84,115s20.7-3.1,25.9-5.3c21.2-8.7,30.7-32,30.8-47.2V42.1C140.6,42.1,141.7,26,140.1,26"/>
									</g>
								</g>
								<g id="Short-Hair">
									<path class="st13" d="M94.3,52c0.1-0.1-0.2-0.1-0.9-0.1C94.2,52,94.5,52,94.3,52 M86.1,36.3C86.1,36.3,86.1,36.5,86.1,36.3
										 M193.8,70.8c-0.3-3.3-0.7-6.6-1.5-9.9c-0.6-2.6-1.5-5-2.5-7.5c-0.6-1.5-2-3.5-2.2-5.1c-0.2-1.6,1.1-3.3,1.3-5.2
										c0.3-1.8,0.2-3.7-0.2-5.4c-0.8-4-3.6-7.8-7.9-8.8c-1-0.2-3,0.1-3.6-0.5c-0.8-0.6-1.3-2.8-2-3.7c-2-2.5-5.1-4.1-8.4-3.5
										c-2.4,0.4-1,0.9-2.8-0.5c-1-0.8-1.8-2-2.7-2.8c-1.5-1.3-3.2-2.4-4.9-3.3c-4.6-2.4-9.8-4.1-14.8-4.9
										c-9.3-1.5-19.2-0.2-28.2,2.2c-4.5,1.2-9,2.7-13.1,4.7c-1.8,0.9-2.8,1.6-4.7,1.8c-2.9,0.4-5.4,0.3-8.2,1.6
										c-8.5,3.8-12.4,12.7-9.1,21.2c0.7,1.7,1.6,3.2,2.8,4.6c1.5,1.7,2.1,1.3,0.8,3.3c-2,2.9-3.6,6-5,9.2
										C73.4,66.6,72.8,76.1,73,85c0.1,3.1,0.2,6.3,0.7,9.4c0.2,1.3,0.3,3.9,1.3,4.9c0.5,0.5,1.2,0.8,2,0.6
										c1.7-0.5,1.1-1.7,1.2-2.9c0.2-5.9-0.1-11.1,1.3-16.9c1-4.3,2.8-8.2,5-12c2.8-4.9,5.9-9.2,9.8-13.4c0.9-1,1.1-1.4,2.3-1.5
										c0.9-0.1,2.3,0.6,3.2,0.8c2,0.5,4,1,6,1.3c3.7,0.6,7.4,0.6,11.2,0.5c7.4-0.2,14.9-0.8,22.1-2.6c4.8-1.2,9-3.5,13.6-5.1
										c0.1,0,1.2-0.8,1.4-0.8c0.3,0,2,1.8,2.3,2c2.2,1.7,4.7,2.5,7.1,3.8c3,1.7,0.1-0.7,1.7,1.4c0.5,0.6,0.7,1.7,1.1,2.4
										c1.2,2.2,2.9,4.1,4.9,5.6c2,1.5,4.9,2.2,5.9,4.1c0.8,1.5,1,3.5,1.6,5.1c1.6,4.1,3.8,8,5.9,11.9c1.7,3.1,3.6,5.9,3.8,9.5
										c0.1,1.2-1.1,8.7,1.8,6.5c0.4-0.3,1.4-4.2,1.5-4.8c0.8-2.6,1-5.4,1.4-8.1C194,81.3,194.2,76.2,193.8,70.8"/>
								</g>
							</g>
						</g>
					</g>
				</g>
			</g>
		</g>
	</g>
</g>
<path class="st14" d="M142.2,52c-18.6,4.3-37.2-1.3-46.2-5.8c-10.4-5.2-14.4-13-12.4-19.6s10.9-8.2,10.9-8.2s-4-0.1-8.2,1.6
	c-2.7,1.1-8.9,4.6-10,12.2c-1.4,9.4,4.2,15.7,10,17.9c14.8,5.6,20.8,7,37.2,5.5C135.7,54.5,142.2,52,142.2,52z"/>
<path class="st14" d="M176.2,66.7c0,0,3.3,0.7,5.7-3.9c2.4-4.6,4.6-14.5,4.6-14.5l3.4,7.9c1.3,5.8-0.4,6.7-2,10.8
	c-2.4,6.3-8.4,8.8-8.4,8.8s-0.1,1.1-1.8-4S176.2,66.7,176.2,66.7z"/>
<path class="st15" d="M128.5,217.9V280h7v-62.1c17.1-1.8,23.5-16.5,23.7-17.2l-6.5-2.7c-0.1,0.1-5.6,13.1-20.8,13.1c0,0,0,0,0,0
	c-1.1,0-2.2-0.1-3.3-0.2L128.5,217.9z"/>
<path class="st15" d="M128.7,210.8c-11.8-1.8-17.3-12.9-17.5-13.4L108,199l-3.2,1.5c0.3,0.7,7.6,15.4,23.6,17.4L128.7,210.8z"/>
<polygon class="st16" points="120.4,207.7 119.4,214.6 108.9,224.2 "/>
<polygon class="st2" points="103,199.2 107.3,188.1 120.4,207.7 108.9,224.2 "/>
<g>
	<polygon class="st16" points="142.8,208.2 143.8,215.1 154.3,224.7 	"/>
	<polygon class="st2" points="160.2,199.7 155.9,188.6 142.8,208.2 154.3,224.7 	"/>
</g>
<g transform="translate(0.000000, 170.000000)" class="st17">
	<g id="Clothes_1_">
		<path class="st18" d="M48.3,59.8C26.4,85,32.8,109.9,32.8,109.9h-1.8v-8.9c-1.1-43.1,32.5-72.8,74-72.8c0,0.4,0,1.7,0,2.1
			c0,1.5,0.4,2.9,1.1,4.2C106.2,34.4,73.3,31,48.3,59.8z"/>
	</g>
</g>
<g transform="translate(0.000000, 170.000000)" class="st17">
	<g id="Clothes_2_">
		<path class="st18" d="M157.4,34.4c0.7-1.3,1.1-2.7,1.1-4.2c0-0.4,0-1.8,0-2.1c41.6,0,75.2,29.8,74,72.8v8.9h-1.8
			c0,0,6.4-24.9-15.5-50.1C190.3,31,157.4,34.4,157.4,34.4z"/>
	</g>
</g>
<circle class="st2" cx="132" cy="215.1" r="2.8"/>
</svg>
